<svg width="48" height="48" viewBox="0 0 48 48" fill="none" xmlns="http://www.w3.org/2000/svg">
  <rect width="48" height="48" rx="4" fill="#263A4F"/>
  <path d="M24 29C24 22 22 17 17 14" stroke="#8BC34A" stroke-width="3" stroke-linecap="round"/>
  <path d="M24 29C24 22 28 17 34 15" stroke="#8BC34A" stroke-width="3" stroke-linecap="round"/>
  <path d="M22.5 17.5C18 13 12.8 13.2 10 14C10.7 18.7 14.3 22.5 20 22.5C21.6 22.5 23 21 22.5 17.5Z" fill="#9CCC65"/>
  <path d="M26.5 18.5C30.5 14.6 35.4 14.5 38 15.4C37.4 19.8 33.8 23.2 28.7 23.1C27.1 23.1 25.8 21.8 26.5 18.5Z" fill="#AED957"/>
  <path d="M15 38C16.7 32.7 20.2 30 24 30C27.8 30 31.3 32.7 33 38H15Z" fill="#A97963"/>
  <path d="M18 38C19.4 34.8 21.4 33.2 24 33.2C26.6 33.2 28.6 34.8 30 38H18Z" fill="#C08A70"/>
</svg>
